<svg id="my-svg" width="100%" xmlns="http://www.w3.org/2000/svg" xmlns:xlink="http://www.w3.org/1999/xlink" class="classDiagram" style="max-width: 1016.4px; background-color: transparent;" viewBox="0 0 1016.3984375 632" role="graphics-document document" aria-roledescription="class"><style>#my-svg{font-family:"trebuchet ms",verdana,arial,sans-serif;font-size:16px;fill:#333;}@keyframes edge-animation-frame{from{stroke-dashoffset:0;}}@keyframes dash{to{stroke-dashoffset:0;}}#my-svg .edge-animation-slow{stroke-dasharray:9,5!important;stroke-dashoffset:900;animation:dash 50s linear infinite;stroke-linecap:round;}#my-svg .edge-animation-fast{stroke-dasharray:9,5!important;stroke-dashoffset:900;animation:dash 20s linear infinite;stroke-linecap:round;}#my-svg .error-icon{fill:#552222;}#my-svg .error-text{fill:#552222;stroke:#552222;}#my-svg .edge-thickness-normal{stroke-width:1px;}#my-svg .edge-thickness-thick{stroke-width:3.5px;}#my-svg .edge-pattern-solid{stroke-dasharray:0;}#my-svg .edge-thickness-invisible{stroke-width:0;fill:none;}#my-svg .edge-pattern-dashed{stroke-dasharray:3;}#my-svg .edge-pattern-dotted{stroke-dasharray:2;}#my-svg .marker{fill:#333333;stroke:#333333;}#my-svg .marker.cross{stroke:#333333;}#my-svg svg{font-family:"trebuchet ms",verdana,arial,sans-serif;font-size:16px;}#my-svg p{margin:0;}#my-svg g.classGroup text{fill:#9370DB;stroke:none;font-family:"trebuchet ms",verdana,arial,sans-serif;font-size:10px;}#my-svg g.classGroup text .title{font-weight:bolder;}#my-svg .nodeLabel,#my-svg .edgeLabel{color:#131300;}#my-svg .edgeLabel .label rect{fill:#ECECFF;}#my-svg .label text{fill:#131300;}#my-svg .labelBkg{background:#ECECFF;}#my-svg .edgeLabel .label span{background:#ECECFF;}#my-svg .classTitle{font-weight:bolder;}#my-svg .node rect,#my-svg .node circle,#my-svg .node ellipse,#my-svg .node polygon,#my-svg .node path{fill:#ECECFF;stroke:#9370DB;stroke-width:1px;}#my-svg .divider{stroke:#9370DB;stroke-width:1;}#my-svg g.clickable{cursor:pointer;}#my-svg g.classGroup rect{fill:#ECECFF;stroke:#9370DB;}#my-svg g.classGroup line{stroke:#9370DB;stroke-width:1;}#my-svg .classLabel .box{stroke:none;stroke-width:0;fill:#ECECFF;opacity:0.5;}#my-svg .classLabel .label{fill:#9370DB;font-size:10px;}#my-svg .relation{stroke:#333333;stroke-width:1;fill:none;}#my-svg .dashed-line{stroke-dasharray:3;}#my-svg .dotted-line{stroke-dasharray:1 2;}#my-svg #compositionStart,#my-svg .composition{fill:#333333!important;stroke:#333333!important;stroke-width:1;}#my-svg #compositionEnd,#my-svg .composition{fill:#333333!important;stroke:#333333!important;stroke-width:1;}#my-svg #dependencyStart,#my-svg .dependency{fill:#333333!important;stroke:#333333!important;stroke-width:1;}#my-svg #dependencyStart,#my-svg .dependency{fill:#333333!important;stroke:#333333!important;stroke-width:1;}#my-svg #extensionStart,#my-svg .extension{fill:transparent!important;stroke:#333333!important;stroke-width:1;}#my-svg #extensionEnd,#my-svg .extension{fill:transparent!important;stroke:#333333!important;stroke-width:1;}#my-svg #aggregationStart,#my-svg .aggregation{fill:transparent!important;stroke:#333333!important;stroke-width:1;}#my-svg #aggregationEnd,#my-svg .aggregation{fill:transparent!important;stroke:#333333!important;stroke-width:1;}#my-svg #lollipopStart,#my-svg .lollipop{fill:#ECECFF!important;stroke:#333333!important;stroke-width:1;}#my-svg #lollipopEnd,#my-svg .lollipop{fill:#ECECFF!important;stroke:#333333!important;stroke-width:1;}#my-svg .edgeTerminals{font-size:11px;line-height:initial;}#my-svg .classTitleText{text-anchor:middle;font-size:18px;fill:#333;}#my-svg .label-icon{display:inline-block;height:1em;overflow:visible;vertical-align:-0.125em;}#my-svg .node .label-icon path{fill:currentColor;stroke:revert;stroke-width:revert;}#my-svg :root{--mermaid-font-family:"trebuchet ms",verdana,arial,sans-serif;}</style><g><defs><marker id="my-svg_class-aggregationStart" class="marker aggregation class" refX="18" refY="7" markerWidth="190" markerHeight="240" orient="auto"><path d="M 18,7 L9,13 L1,7 L9,1 Z"/></marker></defs><defs><marker id="my-svg_class-aggregationEnd" class="marker aggregation class" refX="1" refY="7" markerWidth="20" markerHeight="28" orient="auto"><path d="M 18,7 L9,13 L1,7 L9,1 Z"/></marker></defs><defs><marker id="my-svg_class-extensionStart" class="marker extension class" refX="18" refY="7" markerWidth="190" markerHeight="240" orient="auto"><path d="M 1,7 L18,13 V 1 Z"/></marker></defs><defs><marker id="my-svg_class-extensionEnd" class="marker extension class" refX="1" refY="7" markerWidth="20" markerHeight="28" orient="auto"><path d="M 1,1 V 13 L18,7 Z"/></marker></defs><defs><marker id="my-svg_class-compositionStart" class="marker composition class" refX="18" refY="7" markerWidth="190" markerHeight="240" orient="auto"><path d="M 18,7 L9,13 L1,7 L9,1 Z"/></marker></defs><defs><marker id="my-svg_class-compositionEnd" class="marker composition class" refX="1" refY="7" markerWidth="20" markerHeight="28" orient="auto"><path d="M 18,7 L9,13 L1,7 L9,1 Z"/></marker></defs><defs><marker id="my-svg_class-dependencyStart" class="marker dependency class" refX="6" refY="7" markerWidth="190" markerHeight="240" orient="auto"><path d="M 5,7 L9,13 L1,7 L9,1 Z"/></marker></defs><defs><marker id="my-svg_class-dependencyEnd" class="marker dependency class" refX="13" refY="7" markerWidth="20" markerHeight="28" orient="auto"><path d="M 18,7 L9,13 L14,7 L9,1 Z"/></marker></defs><defs><marker id="my-svg_class-lollipopStart" class="marker lollipop class" refX="13" refY="7" markerWidth="190" markerHeight="240" orient="auto"><circle stroke="black" fill="transparent" cx="7" cy="7" r="6"/></marker></defs><defs><marker id="my-svg_class-lollipopEnd" class="marker lollipop class" refX="1" refY="7" markerWidth="190" markerHeight="240" orient="auto"><circle stroke="black" fill="transparent" cx="7" cy="7" r="6"/></marker></defs><g class="root"><g class="clusters"/><g class="edgePaths"><path d="M293.788,364.767L286.663,367.806C279.538,370.845,265.289,376.922,258.164,384.128C251.039,391.333,251.039,399.667,251.039,403.833L251.039,408" id="id_LLMSource_CLIAssistantLLMSource_1" class="edge-thickness-normal edge-pattern-solid relation" style=";;;" data-edge="true" data-et="edge" data-id="id_LLMSource_CLIAssistantLLMSource_1" data-points="W3sieCI6MzA5LjY1NTA0NjczNTQ5MTA2LCJ5IjozNTh9LHsieCI6MjUxLjAzOTA2MjUsInkiOjM4M30seyJ4IjoyNTEuMDM5MDYyNSwieSI6NDA4fV0=" marker-start="url(#my-svg_class-extensionStart)"/><path d="M733.489,364.767L740.614,367.806C747.739,370.845,761.989,376.922,769.113,384.128C776.238,391.333,776.238,399.667,776.238,403.833L776.238,408" id="id_LLMSource_PluginLLMSource_2" class="edge-thickness-normal edge-pattern-solid relation" style=";;;" data-edge="true" data-et="edge" data-id="id_LLMSource_PluginLLMSource_2" data-points="W3sieCI6NzE3LjYyMjI5NzAxNDUwOSwieSI6MzU4fSx7IngiOjc3Ni4yMzgyODEyNSwieSI6MzgzfSx7IngiOjc3Ni4yMzgyODEyNSwieSI6NDA4fV0=" marker-start="url(#my-svg_class-extensionStart)"/><path d="M513.639,134L513.639,138.167C513.639,142.333,513.639,150.667,513.639,158C513.639,165.333,513.639,171.667,513.639,174.833L513.639,178" id="id_LLMSourceFactory_LLMSource_3" class="edge-thickness-normal edge-pattern-solid relation" style=";;;" data-edge="true" data-et="edge" data-id="id_LLMSourceFactory_LLMSource_3" data-points="W3sieCI6NTEzLjYzODY3MTg3NSwieSI6MTM0fSx7IngiOjUxMy42Mzg2NzE4NzUsInkiOjE1OX0seyJ4Ijo1MTMuNjM4NjcxODc1LCJ5IjoxODR9XQ==" marker-end="url(#my-svg_class-dependencyEnd)"/></g><g class="edgeLabels"><g class="edgeLabel"><g class="label" data-id="id_LLMSource_CLIAssistantLLMSource_1" transform="translate(0, 0)"><foreignObject width="0" height="0"><div xmlns="http://www.w3.org/1999/xhtml" class="labelBkg" style="display: table-cell; white-space: nowrap; line-height: 1.5; max-width: 200px; text-align: center;"><span class="edgeLabel"></span></div></foreignObject></g></g><g class="edgeLabel"><g class="label" data-id="id_LLMSource_PluginLLMSource_2" transform="translate(0, 0)"><foreignObject width="0" height="0"><div xmlns="http://www.w3.org/1999/xhtml" class="labelBkg" style="display: table-cell; white-space: nowrap; line-height: 1.5; max-width: 200px; text-align: center;"><span class="edgeLabel"></span></div></foreignObject></g></g><g class="edgeLabel"><g class="label" data-id="id_LLMSourceFactory_LLMSource_3" transform="translate(0, 0)"><foreignObject width="0" height="0"><div xmlns="http://www.w3.org/1999/xhtml" class="labelBkg" style="display: table-cell; white-space: nowrap; line-height: 1.5; max-width: 200px; text-align: center;"><span class="edgeLabel"></span></div></foreignObject></g></g></g><g class="nodes"><g class="node default" id="classId-LLMSource-0" transform="translate(513.638671875, 271)"><g class="basic label-container"><path d="M-220.70703125 -87 L220.70703125 -87 L220.70703125 87 L-220.70703125 87" stroke="none" stroke-width="0" fill="#ECECFF" style=""/><path d="M-220.70703125 -87 C-77.74338151298008 -87, 65.22026822403984 -87, 220.70703125 -87 M-220.70703125 -87 C-121.23626719274509 -87, -21.765503135490178 -87, 220.70703125 -87 M220.70703125 -87 C220.70703125 -31.51671478614427, 220.70703125 23.96657042771146, 220.70703125 87 M220.70703125 -87 C220.70703125 -34.558614463297964, 220.70703125 17.882771073404072, 220.70703125 87 M220.70703125 87 C123.69854641530645 87, 26.690061580612905 87, -220.70703125 87 M220.70703125 87 C71.92499310133601 87, -76.85704504732797 87, -220.70703125 87 M-220.70703125 87 C-220.70703125 19.126491240958927, -220.70703125 -48.747017518082146, -220.70703125 -87 M-220.70703125 87 C-220.70703125 23.55425289284363, -220.70703125 -39.89149421431274, -220.70703125 -87" stroke="#9370DB" stroke-width="1.3" fill="none" stroke-dasharray="0 0" style=""/></g><g class="annotation-group text" transform="translate(-37.90625, -63)"><g class="label" style="" transform="translate(0,-12)"><foreignObject width="75.8125" height="24"><div xmlns="http://www.w3.org/1999/xhtml" style="display: table-cell; white-space: nowrap; line-height: 1.5; max-width: 116px; text-align: center;"><span class="nodeLabel markdown-node-label" style=""><p>«abstract»</p></span></div></foreignObject></g></g><g class="label-group text" transform="translate(-40.2578125, -39)"><g class="label" style="font-weight: bolder" transform="translate(0,-12)"><foreignObject width="80.515625" height="24"><div xmlns="http://www.w3.org/1999/xhtml" style="display: table-cell; white-space: nowrap; line-height: 1.5; max-width: 129px; text-align: center;"><span class="nodeLabel markdown-node-label" style=""><p>LLMSource</p></span></div></foreignObject></g></g><g class="members-group text" transform="translate(-208.70703125, 9)"/><g class="methods-group text" transform="translate(-208.70703125, 39)"><g class="label" style="" transform="translate(0,-12)"><foreignObject width="183.21875" height="24"><div xmlns="http://www.w3.org/1999/xhtml" style="display: table-cell; white-space: nowrap; line-height: 1.5; max-width: 218px; text-align: center;"><span class="nodeLabel markdown-node-label" style=""><p>+invoke(prompt: str) : str</p></span></div></foreignObject></g><g class="label" style="" transform="translate(0,12)"><foreignObject width="377.15625" height="24"><div xmlns="http://www.w3.org/1999/xhtml" style="display: table-cell; white-space: nowrap; line-height: 1.5; max-width: 393px; text-align: center;"><span class="nodeLabel markdown-node-label" style=""><p>+invoke_structured(prompt: str, schema: Dict) : Dict</p></span></div></foreignObject></g></g><g class="divider" style=""><path d="M-220.70703125 -15 C-55.91705224765744 -15, 108.87292675468512 -15, 220.70703125 -15 M-220.70703125 -15 C-78.15254935534509 -15, 64.40193253930983 -15, 220.70703125 -15" stroke="#9370DB" stroke-width="1.3" fill="none" stroke-dasharray="0 0" style=""/></g><g class="divider" style=""><path d="M-220.70703125 9 C-72.41080018374282 9, 75.88543088251436 9, 220.70703125 9 M-220.70703125 9 C-53.484702310467924 9, 113.73762662906415 9, 220.70703125 9" stroke="#9370DB" stroke-width="1.3" fill="none" stroke-dasharray="0 0" style=""/></g></g><g class="node default" id="classId-CLIAssistantLLMSource-1" transform="translate(251.0390625, 516)"><g class="basic label-container"><path d="M-243.0390625 -108 L243.0390625 -108 L243.0390625 108 L-243.0390625 108" stroke="none" stroke-width="0" fill="#ECECFF" style=""/><path d="M-243.0390625 -108 C-68.66863747571989 -108, 105.70178754856022 -108, 243.0390625 -108 M-243.0390625 -108 C-62.24958216186556 -108, 118.53989817626888 -108, 243.0390625 -108 M243.0390625 -108 C243.0390625 -43.71412929806132, 243.0390625 20.571741403877354, 243.0390625 108 M243.0390625 -108 C243.0390625 -36.0270246388076, 243.0390625 35.945950722384794, 243.0390625 108 M243.0390625 108 C98.14092894214536 108, -46.75720461570927 108, -243.0390625 108 M243.0390625 108 C51.720422485331966 108, -139.59821752933607 108, -243.0390625 108 M-243.0390625 108 C-243.0390625 23.463189773698687, -243.0390625 -61.073620452602626, -243.0390625 -108 M-243.0390625 108 C-243.0390625 27.067804374682623, -243.0390625 -53.86439125063475, -243.0390625 -108" stroke="#9370DB" stroke-width="1.3" fill="none" stroke-dasharray="0 0" style=""/></g><g class="annotation-group text" transform="translate(0, -84)"/><g class="label-group text" transform="translate(-84.921875, -84)"><g class="label" style="font-weight: bolder" transform="translate(0,-12)"><foreignObject width="169.84375" height="24"><div xmlns="http://www.w3.org/1999/xhtml" style="display: table-cell; white-space: nowrap; line-height: 1.5; max-width: 213px; text-align: center;"><span class="nodeLabel markdown-node-label" style=""><p>CLIAssistantLLMSource</p></span></div></foreignObject></g></g><g class="members-group text" transform="translate(-231.0390625, -36)"><g class="label" style="" transform="translate(0,-12)"><foreignObject width="93.078125" height="24"><div xmlns="http://www.w3.org/1999/xhtml" style="display: table-cell; white-space: nowrap; line-height: 1.5; max-width: 137px; text-align: center;"><span class="nodeLabel markdown-node-label" style=""><p>-cli_type: str</p></span></div></foreignObject></g><g class="label" style="" transform="translate(0,12)"><foreignObject width="215.21875" height="24"><div xmlns="http://www.w3.org/1999/xhtml" style="display: table-cell; white-space: nowrap; line-height: 1.5; max-width: 258px; text-align: center;"><span class="nodeLabel markdown-node-label" style=""><p>-client: SessionBasedCLIClient</p></span></div></foreignObject></g><g class="label" style="" transform="translate(0,36)"><foreignObject width="154.4375" height="24"><div xmlns="http://www.w3.org/1999/xhtml" style="display: table-cell; white-space: nowrap; line-height: 1.5; max-width: 198px; text-align: center;"><span class="nodeLabel markdown-node-label" style=""><p>-fallback_config: Dict</p></span></div></foreignObject></g></g><g class="methods-group text" transform="translate(-231.0390625, 60)"><g class="label" style="" transform="translate(0,-12)"><foreignObject width="183.21875" height="24"><div xmlns="http://www.w3.org/1999/xhtml" style="display: table-cell; white-space: nowrap; line-height: 1.5; max-width: 218px; text-align: center;"><span class="nodeLabel markdown-node-label" style=""><p>+invoke(prompt: str) : str</p></span></div></foreignObject></g><g class="label" style="" transform="translate(0,12)"><foreignObject width="377.15625" height="24"><div xmlns="http://www.w3.org/1999/xhtml" style="display: table-cell; white-space: nowrap; line-height: 1.5; max-width: 393px; text-align: center;"><span class="nodeLabel markdown-node-label" style=""><p>+invoke_structured(prompt: str, schema: Dict) : Dict</p></span></div></foreignObject></g></g><g class="divider" style=""><path d="M-243.0390625 -60 C-51.82668561949464 -60, 139.38569126101072 -60, 243.0390625 -60 M-243.0390625 -60 C-110.64951430951433 -60, 21.74003388097134 -60, 243.0390625 -60" stroke="#9370DB" stroke-width="1.3" fill="none" stroke-dasharray="0 0" style=""/></g><g class="divider" style=""><path d="M-243.0390625 36 C-55.657092834394945 36, 131.7248768312101 36, 243.0390625 36 M-243.0390625 36 C-113.48877012936114 36, 16.061522241277714 36, 243.0390625 36" stroke="#9370DB" stroke-width="1.3" fill="none" stroke-dasharray="0 0" style=""/></g></g><g class="node default" id="classId-PluginLLMSource-2" transform="translate(776.23828125, 516)"><g class="basic label-container"><path d="M-232.16015625 -108 L232.16015625 -108 L232.16015625 108 L-232.16015625 108" stroke="none" stroke-width="0" fill="#ECECFF" style=""/><path d="M-232.16015625 -108 C-90.41490483123849 -108, 51.330346587523024 -108, 232.16015625 -108 M-232.16015625 -108 C-103.64566984451363 -108, 24.868816560972732 -108, 232.16015625 -108 M232.16015625 -108 C232.16015625 -37.52534478911326, 232.16015625 32.949310421773475, 232.16015625 108 M232.16015625 -108 C232.16015625 -26.276345419083, 232.16015625 55.447309161834, 232.16015625 108 M232.16015625 108 C59.16908581425335 108, -113.8219846214933 108, -232.16015625 108 M232.16015625 108 C69.03168035049973 108, -94.09679554900055 108, -232.16015625 108 M-232.16015625 108 C-232.16015625 30.271836548644558, -232.16015625 -47.456326902710884, -232.16015625 -108 M-232.16015625 108 C-232.16015625 40.21806375672482, -232.16015625 -27.563872486550366, -232.16015625 -108" stroke="#9370DB" stroke-width="1.3" fill="none" stroke-dasharray="0 0" style=""/></g><g class="annotation-group text" transform="translate(0, -84)"/><g class="label-group text" transform="translate(-63.1640625, -84)"><g class="label" style="font-weight: bolder" transform="translate(0,-12)"><foreignObject width="126.328125" height="24"><div xmlns="http://www.w3.org/1999/xhtml" style="display: table-cell; white-space: nowrap; line-height: 1.5; max-width: 171px; text-align: center;"><span class="nodeLabel markdown-node-label" style=""><p>PluginLLMSource</p></span></div></foreignObject></g></g><g class="members-group text" transform="translate(-220.16015625, -36)"><g class="label" style="" transform="translate(0,-12)"><foreignObject width="95.59375" height="24"><div xmlns="http://www.w3.org/1999/xhtml" style="display: table-cell; white-space: nowrap; line-height: 1.5; max-width: 140px; text-align: center;"><span class="nodeLabel markdown-node-label" style=""><p>-provider: str</p></span></div></foreignObject></g><g class="label" style="" transform="translate(0,12)"><foreignObject width="79.84375" height="24"><div xmlns="http://www.w3.org/1999/xhtml" style="display: table-cell; white-space: nowrap; line-height: 1.5; max-width: 126px; text-align: center;"><span class="nodeLabel markdown-node-label" style=""><p>-model: str</p></span></div></foreignObject></g><g class="label" style="" transform="translate(0,36)"><foreignObject width="113.046875" height="24"><div xmlns="http://www.w3.org/1999/xhtml" style="display: table-cell; white-space: nowrap; line-height: 1.5; max-width: 160px; text-align: center;"><span class="nodeLabel markdown-node-label" style=""><p>-api_client: Any</p></span></div></foreignObject></g></g><g class="methods-group text" transform="translate(-220.16015625, 60)"><g class="label" style="" transform="translate(0,-12)"><foreignObject width="183.21875" height="24"><div xmlns="http://www.w3.org/1999/xhtml" style="display: table-cell; white-space: nowrap; line-height: 1.5; max-width: 218px; text-align: center;"><span class="nodeLabel markdown-node-label" style=""><p>+invoke(prompt: str) : str</p></span></div></foreignObject></g><g class="label" style="" transform="translate(0,12)"><foreignObject width="377.15625" height="24"><div xmlns="http://www.w3.org/1999/xhtml" style="display: table-cell; white-space: nowrap; line-height: 1.5; max-width: 393px; text-align: center;"><span class="nodeLabel markdown-node-label" style=""><p>+invoke_structured(prompt: str, schema: Dict) : Dict</p></span></div></foreignObject></g></g><g class="divider" style=""><path d="M-232.16015625 -60 C-101.54182107937012 -60, 29.076514091259753 -60, 232.16015625 -60 M-232.16015625 -60 C-125.03754388203244 -60, -17.914931514064875 -60, 232.16015625 -60" stroke="#9370DB" stroke-width="1.3" fill="none" stroke-dasharray="0 0" style=""/></g><g class="divider" style=""><path d="M-232.16015625 36 C-86.96248577272152 36, 58.23518470455696 36, 232.16015625 36 M-232.16015625 36 C-75.10611009621493 36, 81.94793605757013 36, 232.16015625 36" stroke="#9370DB" stroke-width="1.3" fill="none" stroke-dasharray="0 0" style=""/></g></g><g class="node default" id="classId-LLMSourceFactory-3" transform="translate(513.638671875, 71)"><g class="basic label-container"><path d="M-242.703125 -63 L242.703125 -63 L242.703125 63 L-242.703125 63" stroke="none" stroke-width="0" fill="#ECECFF" style=""/><path d="M-242.703125 -63 C-55.192027375644244 -63, 132.3190702487115 -63, 242.703125 -63 M-242.703125 -63 C-117.8790954140908 -63, 6.944934171818403 -63, 242.703125 -63 M242.703125 -63 C242.703125 -24.755155303022207, 242.703125 13.489689393955587, 242.703125 63 M242.703125 -63 C242.703125 -31.25826574466411, 242.703125 0.4834685106717771, 242.703125 63 M242.703125 63 C78.37585620426063 63, -85.95141259147874 63, -242.703125 63 M242.703125 63 C101.52999580715493 63, -39.643133385690135 63, -242.703125 63 M-242.703125 63 C-242.703125 28.77394519294517, -242.703125 -5.452109614109659, -242.703125 -63 M-242.703125 63 C-242.703125 21.968281865342007, -242.703125 -19.063436269315986, -242.703125 -63" stroke="#9370DB" stroke-width="1.3" fill="none" stroke-dasharray="0 0" style=""/></g><g class="annotation-group text" transform="translate(0, -39)"/><g class="label-group text" transform="translate(-68.296875, -39)"><g class="label" style="font-weight: bolder" transform="translate(0,-12)"><foreignObject width="136.59375" height="24"><div xmlns="http://www.w3.org/1999/xhtml" style="display: table-cell; white-space: nowrap; line-height: 1.5; max-width: 179px; text-align: center;"><span class="nodeLabel markdown-node-label" style=""><p>LLMSourceFactory</p></span></div></foreignObject></g></g><g class="members-group text" transform="translate(-230.703125, 9)"/><g class="methods-group text" transform="translate(-230.703125, 39)"><g class="label" style="" transform="translate(0,-12)"><foreignObject width="393.109375" height="24"><div xmlns="http://www.w3.org/1999/xhtml" style="display: table-cell; white-space: nowrap; line-height: 1.5; max-width: 417px; text-align: center;"><span class="nodeLabel markdown-node-label" style=""><p>+create_llm_source(role: str, config: Dict) : LLMSource</p></span></div></foreignObject></g></g><g class="divider" style=""><path d="M-242.703125 -15 C-48.80491723753451 -15, 145.09329052493098 -15, 242.703125 -15 M-242.703125 -15 C-89.0956914367593 -15, 64.51174212648141 -15, 242.703125 -15" stroke="#9370DB" stroke-width="1.3" fill="none" stroke-dasharray="0 0" style=""/></g><g class="divider" style=""><path d="M-242.703125 9 C-60.9606737783771 9, 120.7817774432458 9, 242.703125 9 M-242.703125 9 C-97.51001297460152 9, 47.683099050796955 9, 242.703125 9" stroke="#9370DB" stroke-width="1.3" fill="none" stroke-dasharray="0 0" style=""/></g></g></g></g></g></svg>